# xmcd
#
# Track frame offsets:
#	150
#	12116
#	26811
#	39330
#	50983
#	64776
#	76620
#	88371
#	100863
#	113055
#	127714
#	138650
#	151472
#	163519
#	174677
#	187971
#	200482
#	216687
#
# Disc length: 3145 seconds
#
# Revision: 2
# Processed by: cddbd v1.4PL0 Copyright (c) Steve Scherf et al.
# Submitted via: MusicWizard 6.0.2
#
DISCID=f90c4712
DTITLE=Various Artist - Country Show Down - CD 1
DYEAR=1900
DGENRE=Country
TTITLE0=Johnny Cash - Ring Of Fire
TTITLE1=John Denver - Take Me Home Country Road
TTITLE2=Dolly Parton - Nine To Five
TTITLE3=Willy Nelson - On The Road Again
TTITLE4=Emmylou Harris - One Of These Days
TTITLE5=Dave Dudly - Six Days On The Road
TTITLE6=Lovin´ Spoonful - Nashville Cats
TTITLE7=Charlie Rich - The Most Beautiful Girl
TTITLE8=Brenda Lee - I´m Sorry
TTITLE9=Glen Campbell - Rhinestone Cowboy
TTITLE10=Waylon Jennings - Dream Baby
TTITLE11=Lee Hazlewood - The Boots Are Made For Walking
TTITLE12=Crystal Gayle - Don´t It Make My Brown Eyes Blue
TTITLE13=Roger Miller - King Of The Road
TTITLE14=Lynn Anderson - Rose Garden
TTITLE15=Sawyer Brown - When Love Comes Calling
TTITLE16=Linda Ronstadt - Desperado
TTITLE17=Kris Kristofferson - Me And Bobby McGee
EXTD=
EXTT0=
EXTT1=
EXTT2=
EXTT3=
EXTT4=
EXTT5=
EXTT6=
EXTT7=
EXTT8=
EXTT9=
EXTT10=
EXTT11=
EXTT12=
EXTT13=
EXTT14=
EXTT15=
EXTT16=
EXTT17=
PLAYORDER=
